<svg width="14" height="14" viewBox="0 0 14 14" fill="none" xmlns="http://www.w3.org/2000/svg">
<mask id="mask0_3_486" style="mask-type:alpha" maskUnits="userSpaceOnUse" x="0" y="0" width="14" height="14">
<rect width="14" height="14" fill="#D9D9D9"/>
</mask>
<g mask="url(#mask0_3_486)">
<path d="M6.41666 7.58335H3.5C3.33472 7.58335 3.19618 7.52745 3.08437 7.41565C2.97257 7.30384 2.91666 7.1653 2.91666 7.00002C2.91666 6.83474 2.97257 6.6962 3.08437 6.5844C3.19618 6.47259 3.33472 6.41669 3.5 6.41669H6.41666V3.50002C6.41666 3.33474 6.47257 3.1962 6.58437 3.0844C6.69618 2.97259 6.83472 2.91669 7 2.91669C7.16528 2.91669 7.30382 2.97259 7.41562 3.0844C7.52743 3.1962 7.58333 3.33474 7.58333 3.50002V6.41669H10.5C10.6653 6.41669 10.8038 6.47259 10.9156 6.5844C11.0274 6.6962 11.0833 6.83474 11.0833 7.00002C11.0833 7.1653 11.0274 7.30384 10.9156 7.41565C10.8038 7.52745 10.6653 7.58335 10.5 7.58335H7.58333V10.5C7.58333 10.6653 7.52743 10.8038 7.41562 10.9156C7.30382 11.0275 7.16528 11.0834 7 11.0834C6.83472 11.0834 6.69618 11.0275 6.58437 10.9156C6.47257 10.8038 6.41666 10.6653 6.41666 10.5V7.58335Z" fill="white"/>
</g>
</svg>
