<svg width="9" height="10" viewBox="0 0 9 10" fill="none" xmlns="http://www.w3.org/2000/svg">
<path d="M2.99924 1.47473C3.25501 0.726247 4.28921 0.703578 4.59245 1.40673L4.61811 1.47516L4.96327 2.48455C5.04238 2.71604 5.1702 2.92787 5.33813 3.10576C5.50606 3.28365 5.71018 3.42346 5.93674 3.51575L6.02955 3.5504L7.03894 3.89513C7.78742 4.1509 7.81009 5.18509 7.10737 5.48834L7.03894 5.514L6.02955 5.85916C5.79798 5.93821 5.58606 6.06601 5.4081 6.23394C5.23013 6.40187 5.09026 6.60602 4.99792 6.83262L4.96327 6.925L4.61854 7.93482C4.36277 8.68331 3.32858 8.70598 3.02576 8.00325L2.99924 7.93482L2.65451 6.92543C2.57546 6.69386 2.44766 6.48195 2.27973 6.30398C2.1118 6.12602 1.90765 5.98614 1.68105 5.8938L1.58867 5.85916L0.579277 5.51443C-0.169638 5.25866 -0.192307 4.22446 0.510844 3.92165L0.579277 3.89513L1.58867 3.5504C1.82015 3.47129 2.03199 3.34347 2.20988 3.17554C2.38777 3.00761 2.52757 2.80349 2.61987 2.57693L2.65451 2.48455L2.99924 1.47473ZM7.23055 7.72813e-08C7.31056 -1.00927e-07 7.38898 0.0224453 7.45687 0.0647854C7.52477 0.107126 7.57942 0.167662 7.61463 0.239516L7.63516 0.289558L7.78486 0.728385L8.22411 0.878083C8.3043 0.905326 8.37459 0.955761 8.42609 1.023C8.47758 1.09023 8.50796 1.17124 8.51336 1.25576C8.51877 1.34027 8.49896 1.42449 8.45645 1.49774C8.41394 1.57099 8.35065 1.62997 8.27458 1.6672L8.22411 1.68773L7.78529 1.83743L7.63559 2.27668C7.6083 2.35685 7.55782 2.42711 7.49056 2.47856C7.4233 2.53001 7.34228 2.56034 7.25777 2.5657C7.17326 2.57105 7.08905 2.55121 7.01583 2.50866C6.94261 2.46612 6.88367 2.4028 6.84647 2.32673L6.82594 2.27668L6.67624 1.83786L6.23699 1.68816C6.1568 1.66092 6.0865 1.61048 6.03501 1.54325C5.98352 1.47601 5.95314 1.395 5.94774 1.31049C5.94233 1.22597 5.96214 1.14175 6.00465 1.0685C6.04716 0.995256 6.11045 0.936277 6.18652 0.89904L6.23699 0.87851L6.67581 0.728813L6.82551 0.289558C6.85435 0.205054 6.90892 0.131695 6.98155 0.0797669C7.05419 0.027839 7.14126 -5.35837e-05 7.23055 7.72813e-08Z" fill="white"/>
</svg>
