<svg width="14" height="14" viewBox="0 0 14 14" fill="none" xmlns="http://www.w3.org/2000/svg">
<mask id="mask0_3_475" style="mask-type:alpha" maskUnits="userSpaceOnUse" x="0" y="0" width="14" height="14">
<rect width="14" height="14" fill="#D9D9D9"/>
</mask>
<g mask="url(#mask0_3_475)">
<path d="M12.25 12.0167C12.1722 12.0167 12.0993 12.0021 12.0312 11.9729C11.9632 11.9438 11.9 11.9 11.8417 11.8417L10.5 10.5H4.66666C4.34583 10.5 4.07118 10.3858 3.84271 10.1573C3.61423 9.92884 3.5 9.65419 3.5 9.33335V8.75002H9.91667C10.2375 8.75002 10.5122 8.63578 10.7406 8.40731C10.9691 8.17884 11.0833 7.90419 11.0833 7.58335V3.50002H11.6667C11.9875 3.50002 12.2622 3.61426 12.4906 3.84273C12.7191 4.0712 12.8333 4.34585 12.8333 4.66669V11.4188C12.8333 11.5938 12.775 11.7372 12.6583 11.849C12.5417 11.9608 12.4056 12.0167 12.25 12.0167ZM1.75 9.10002C1.59444 9.10002 1.45833 9.04412 1.34166 8.93231C1.225 8.82051 1.16666 8.6771 1.16666 8.5021V2.33335C1.16666 2.01252 1.2809 1.73787 1.50937 1.5094C1.73784 1.28092 2.0125 1.16669 2.33333 1.16669H8.75C9.07083 1.16669 9.34548 1.28092 9.57396 1.5094C9.80243 1.73787 9.91667 2.01252 9.91667 2.33335V6.41669C9.91667 6.73752 9.80243 7.01217 9.57396 7.24065C9.34548 7.46912 9.07083 7.58335 8.75 7.58335H3.5L2.15833 8.92502C2.1 8.98335 2.0368 9.0271 1.96875 9.05627C1.90069 9.08544 1.82778 9.10002 1.75 9.10002Z" fill="white"/>
</g>
</svg>
