<svg width="14" height="14" viewBox="0 0 14 14" fill="none" xmlns="http://www.w3.org/2000/svg">
<mask id="mask0_75_123" style="mask-type:alpha" maskUnits="userSpaceOnUse" x="0" y="0" width="14" height="14">
<rect width="14" height="14" fill="#D9D9D9"/>
</mask>
<g mask="url(#mask0_75_123)">
<path d="M5.25 12.25C4.27778 12.25 3.45139 11.9097 2.77083 11.2292C2.09028 10.5486 1.75 9.72222 1.75 8.75V5.25C1.75 4.27778 2.09028 3.45139 2.77083 2.77083C3.45139 2.09028 4.27778 1.75 5.25 1.75H8.75C9.72222 1.75 10.5486 2.09028 11.2292 2.77083C11.9097 3.45139 12.25 4.27778 12.25 5.25V8.75C12.25 9.72222 11.9097 10.5486 11.2292 11.2292C10.5486 11.9097 9.72222 12.25 8.75 12.25H5.25ZM6.41667 9.33333L9.91667 5.83333L9.1 5.01667L6.41667 7.7L5.13333 6.41667L4.31667 7.23333L6.41667 9.33333Z" fill="white"/>
</g>
</svg>
