<svg width="14" height="14" viewBox="0 0 14 14" fill="none" xmlns="http://www.w3.org/2000/svg">
<mask id="mask0_3_473" style="mask-type:alpha" maskUnits="userSpaceOnUse" x="0" y="0" width="14" height="14">
<rect width="14" height="14" fill="#D9D9D9"/>
</mask>
<g mask="url(#mask0_3_473)">
<path d="M7.25208 8.82083C7.1743 8.82083 7.10138 8.80868 7.03333 8.78437C6.96527 8.76007 6.90208 8.71875 6.84374 8.66042L4.16041 5.97708C4.05346 5.87014 3.99999 5.73403 3.99999 5.56875C3.99999 5.40347 4.05346 5.26736 4.16041 5.16042C4.26735 5.05347 4.40346 5 4.56874 5C4.73402 5 4.87013 5.05347 4.97708 5.16042L7.25208 7.43542L9.52708 5.16042C9.63402 5.05347 9.77013 5 9.93541 5C10.1007 5 10.2368 5.05347 10.3437 5.16042C10.4507 5.26736 10.5042 5.40347 10.5042 5.56875C10.5042 5.73403 10.4507 5.87014 10.3437 5.97708L7.66041 8.66042C7.60208 8.71875 7.53888 8.76007 7.47083 8.78437C7.40277 8.80868 7.32985 8.82083 7.25208 8.82083Z" fill="white"/>
</g>
</svg>
