<svg width="14" height="14" viewBox="0 0 14 14" fill="none" xmlns="http://www.w3.org/2000/svg">
<mask id="mask0_3_477" style="mask-type:alpha" maskUnits="userSpaceOnUse" x="0" y="0" width="14" height="14">
<rect width="14" height="14" fill="#D9D9D9"/>
</mask>
<g mask="url(#mask0_3_477)">
<path d="M2.91667 12.25C2.59583 12.25 2.32118 12.1358 2.09271 11.9073C1.86424 11.6788 1.75 11.4042 1.75 11.0833V2.91667C1.75 2.59583 1.86424 2.32118 2.09271 2.09271C2.32118 1.86424 2.59583 1.75 2.91667 1.75H5.25C5.57083 1.75 5.84549 1.86424 6.07396 2.09271C6.30243 2.32118 6.41667 2.59583 6.41667 2.91667V11.0833C6.41667 11.4042 6.30243 11.6788 6.07396 11.9073C5.84549 12.1358 5.57083 12.25 5.25 12.25H2.91667ZM8.75 12.25C8.42917 12.25 8.15451 12.1358 7.92604 11.9073C7.69757 11.6788 7.58333 11.4042 7.58333 11.0833V2.91667C7.58333 2.59583 7.69757 2.32118 7.92604 2.09271C8.15451 1.86424 8.42917 1.75 8.75 1.75H11.0833C11.4042 1.75 11.6788 1.86424 11.9073 2.09271C12.1358 2.32118 12.25 2.59583 12.25 2.91667V11.0833C12.25 11.4042 12.1358 11.6788 11.9073 11.9073C11.6788 12.1358 11.4042 12.25 11.0833 12.25H8.75ZM11.0833 2.91667H8.75V11.0833H11.0833V2.91667Z" fill="white"/>
</g>
</svg>
