<svg width="14" height="14" viewBox="0 0 14 14" fill="none" xmlns="http://www.w3.org/2000/svg">
<mask id="mask0_3_476" style="mask-type:alpha" maskUnits="userSpaceOnUse" x="0" y="0" width="14" height="14">
<rect width="14" height="14" fill="#D9D9D9"/>
</mask>
<g mask="url(#mask0_3_476)">
<path d="M9.04167 6.41669C8.3125 6.41669 7.69271 6.16148 7.1823 5.65106C6.67188 5.14065 6.41667 4.52085 6.41667 3.79169C6.41667 3.06252 6.67188 2.44273 7.1823 1.93231C7.69271 1.4219 8.3125 1.16669 9.04167 1.16669C9.77084 1.16669 10.3906 1.4219 10.901 1.93231C11.4115 2.44273 11.6667 3.06252 11.6667 3.79169C11.6667 4.05419 11.6278 4.3021 11.55 4.53544C11.4722 4.76877 11.375 4.98752 11.2583 5.19169L12.7167 6.65002C12.8236 6.75697 12.8771 6.89308 12.8771 7.05835C12.8771 7.22363 12.8236 7.35974 12.7167 7.46669C12.6097 7.57363 12.4736 7.6271 12.3083 7.6271C12.1431 7.6271 12.0069 7.57363 11.9 7.46669L10.4417 6.00835C10.2375 6.12502 10.0188 6.22224 9.78542 6.30002C9.55209 6.3778 9.30417 6.41669 9.04167 6.41669ZM9.04167 5.25002C9.45 5.25002 9.79514 5.10905 10.0771 4.8271C10.359 4.54516 10.5 4.20002 10.5 3.79169C10.5 3.38335 10.359 3.03822 10.0771 2.75627C9.79514 2.47433 9.45 2.33335 9.04167 2.33335C8.63334 2.33335 8.2882 2.47433 8.00626 2.75627C7.72431 3.03822 7.58334 3.38335 7.58334 3.79169C7.58334 4.20002 7.72431 4.54516 8.00626 4.8271C8.2882 5.10905 8.63334 5.25002 9.04167 5.25002ZM2.33334 12.8334C2.01251 12.8334 1.73785 12.7191 1.50938 12.4906C1.28091 12.2622 1.16667 11.9875 1.16667 11.6667V3.50002C1.16667 3.17919 1.28091 2.90453 1.50938 2.67606C1.73785 2.44759 2.01251 2.33335 2.33334 2.33335H4.84167C5.00695 2.33335 5.14306 2.40384 5.25 2.54481C5.35695 2.68578 5.38612 2.83891 5.3375 3.00419C5.30834 3.1403 5.28889 3.28127 5.27917 3.4271C5.26945 3.57294 5.26459 3.71391 5.26459 3.85002C5.26459 4.90974 5.63889 5.79447 6.3875 6.50419C7.13612 7.21391 8.0257 7.56877 9.05626 7.56877C9.24098 7.56877 9.4257 7.55662 9.61042 7.53231C9.79514 7.50801 9.98473 7.46669 10.1792 7.40835L11.3313 8.56044C11.4382 8.66738 11.5208 8.79134 11.5792 8.93231C11.6375 9.07328 11.6667 9.22155 11.6667 9.3771V11.6667C11.6667 11.9875 11.5524 12.2622 11.324 12.4906C11.0955 12.7191 10.8208 12.8334 10.5 12.8334H2.33334Z" fill="white"/>
</g>
</svg>
