<svg width="14" height="14" viewBox="0 0 14 14" fill="none" xmlns="http://www.w3.org/2000/svg">
<mask id="mask0_3_490" style="mask-type:alpha" maskUnits="userSpaceOnUse" x="0" y="0" width="14" height="14">
<rect width="14" height="14" fill="#D9D9D9"/>
</mask>
<g mask="url(#mask0_3_490)">
<path d="M3.2757 11.6666C3.01466 11.6666 2.79231 11.5749 2.60866 11.3913C2.42511 11.2077 2.33333 10.9853 2.33333 10.7243V3.27569C2.33333 3.01465 2.42511 2.7923 2.60866 2.60865C2.79231 2.42509 3.01466 2.33331 3.2757 2.33331H10.7243C10.9853 2.33331 11.2077 2.42509 11.3913 2.60865C11.5749 2.7923 11.6667 3.01465 11.6667 3.27569V10.7243C11.6667 10.9853 11.5749 11.2077 11.3913 11.3913C11.2077 11.5749 10.9853 11.6666 10.7243 11.6666H3.2757ZM5.24999 11.0833H10.7243C10.8141 11.0833 10.8964 11.0459 10.9712 10.9712C11.0459 10.8964 11.0833 10.8141 11.0833 10.7243V3.27569C11.0833 3.18585 11.0459 3.10356 10.9712 3.02879C10.8964 2.95403 10.8141 2.91665 10.7243 2.91665H5.24999V11.0833Z" fill="white"/>
</g>
</svg>
