<svg width="14" height="14" viewBox="0 0 14 14" fill="none" xmlns="http://www.w3.org/2000/svg">
<mask id="mask0_3_498" style="mask-type:alpha" maskUnits="userSpaceOnUse" x="0" y="0" width="14" height="14">
<rect width="14" height="14" fill="#D9D9D9"/>
</mask>
<g mask="url(#mask0_3_498)">
<path d="M3.49999 8.16665C3.17916 8.16665 2.90451 8.05241 2.67604 7.82394C2.44756 7.59547 2.33333 7.32081 2.33333 6.99998C2.33333 6.67915 2.44756 6.40449 2.67604 6.17602C2.90451 5.94755 3.17916 5.83331 3.49999 5.83331C3.82083 5.83331 4.09548 5.94755 4.32395 6.17602C4.55243 6.40449 4.66666 6.67915 4.66666 6.99998C4.66666 7.32081 4.55243 7.59547 4.32395 7.82394C4.09548 8.05241 3.82083 8.16665 3.49999 8.16665ZM6.99999 8.16665C6.67916 8.16665 6.40451 8.05241 6.17604 7.82394C5.94756 7.59547 5.83333 7.32081 5.83333 6.99998C5.83333 6.67915 5.94756 6.40449 6.17604 6.17602C6.40451 5.94755 6.67916 5.83331 6.99999 5.83331C7.32083 5.83331 7.59548 5.94755 7.82395 6.17602C8.05243 6.40449 8.16666 6.67915 8.16666 6.99998C8.16666 7.32081 8.05243 7.59547 7.82395 7.82394C7.59548 8.05241 7.32083 8.16665 6.99999 8.16665ZM10.5 8.16665C10.1792 8.16665 9.90451 8.05241 9.67604 7.82394C9.44756 7.59547 9.33333 7.32081 9.33333 6.99998C9.33333 6.67915 9.44756 6.40449 9.67604 6.17602C9.90451 5.94755 10.1792 5.83331 10.5 5.83331C10.8208 5.83331 11.0955 5.94755 11.324 6.17602C11.5524 6.40449 11.6667 6.67915 11.6667 6.99998C11.6667 7.32081 11.5524 7.59547 11.324 7.82394C11.0955 8.05241 10.8208 8.16665 10.5 8.16665Z" fill="white"/>
</g>
</svg>
