<svg width="14" height="14" viewBox="0 0 14 14" fill="none" xmlns="http://www.w3.org/2000/svg">
<mask id="mask0_97_231" style="mask-type:alpha" maskUnits="userSpaceOnUse" x="0" y="0" width="14" height="14">
<rect width="14" height="14" fill="#D9D9D9"/>
</mask>
<g mask="url(#mask0_97_231)">
<path d="M5.57084 8.8375L10.5146 3.89375C10.6313 3.77708 10.7674 3.71875 10.9229 3.71875C11.0785 3.71875 11.2146 3.77708 11.3313 3.89375C11.4479 4.01042 11.5063 4.14896 11.5063 4.30937C11.5063 4.46979 11.4479 4.60833 11.3313 4.725L5.97918 10.0917C5.86251 10.2083 5.7264 10.2667 5.57084 10.2667C5.41529 10.2667 5.27918 10.2083 5.16251 10.0917L2.65418 7.58333C2.53751 7.46667 2.48161 7.32812 2.48647 7.16771C2.49133 7.00729 2.55209 6.86875 2.66876 6.75208C2.78543 6.63542 2.92397 6.57708 3.08438 6.57708C3.2448 6.57708 3.38334 6.63542 3.50001 6.75208L5.57084 8.8375Z" fill="white"/>
</g>
</svg>
