<svg width="24" height="24" viewBox="0 0 24 24" fill="none" xmlns="http://www.w3.org/2000/svg">
<g clip-path="url(#clip0_153_1571)">
<path d="M21.2806 18.4244C20.9328 19.2279 20.5211 19.9676 20.0441 20.6476C19.3939 21.5747 18.8615 22.2164 18.4512 22.5728C17.8151 23.1577 17.1337 23.4572 16.4039 23.4743C15.8801 23.4743 15.2483 23.3252 14.5129 23.0228C13.7751 22.7218 13.097 22.5728 12.477 22.5728C11.8268 22.5728 11.1294 22.7218 10.3835 23.0228C9.63647 23.3252 9.03466 23.4828 8.57453 23.4984C7.87475 23.5282 7.17725 23.2201 6.48102 22.5728C6.03665 22.1852 5.48084 21.5208 4.81499 20.5795C4.1006 19.5743 3.51326 18.4088 3.05313 17.0799C2.56035 15.6446 2.31332 14.2547 2.31332 12.9091C2.31332 11.3677 2.64639 10.0383 3.31351 8.92424C3.83781 8.0294 4.53531 7.32352 5.40829 6.80533C6.28127 6.28713 7.22453 6.02307 8.24033 6.00617C8.79614 6.00617 9.52502 6.1781 10.4308 6.51599C11.334 6.85502 11.914 7.02694 12.1682 7.02694C12.3583 7.02694 13.0026 6.82591 14.0948 6.42513C15.1276 6.05345 15.9993 5.89955 16.7134 5.96017C18.6485 6.11634 20.1023 6.87915 21.0691 8.25343C19.3385 9.30203 18.4824 10.7707 18.4994 12.6548C18.5151 14.1224 19.0474 15.3436 20.0938 16.3133C20.568 16.7633 21.0975 17.1111 21.6867 17.3582C21.5589 17.7287 21.424 18.0836 21.2806 18.4244ZM16.8426 0.960527C16.8426 2.11079 16.4224 3.18479 15.5848 4.17886C14.5739 5.36063 13.3513 6.04351 12.0254 5.93576C12.0085 5.79776 11.9987 5.65252 11.9987 5.49991C11.9987 4.39565 12.4794 3.21389 13.3331 2.24764C13.7593 1.7584 14.3014 1.35161 14.9587 1.02711C15.6146 0.707449 16.235 0.53067 16.8185 0.500397C16.8355 0.654169 16.8426 0.80795 16.8426 0.960512V0.960527Z" fill="#1A1C1E"/>
</g>
<defs>
<clipPath id="clip0_153_1571">
<rect width="24" height="24" fill="white" transform="translate(0 0.000396729)"/>
</clipPath>
</defs>
</svg>
