<svg width="24" height="24" viewBox="0 0 24 24" fill="none" xmlns="http://www.w3.org/2000/svg">
<rect width="24" height="24" transform="translate(0 0.000396729)" fill="white"/>
<path fill-rule="evenodd" clip-rule="evenodd" d="M23.04 12.2618C23.04 11.4463 22.9668 10.6622 22.8309 9.90948H12V14.3579H18.1891C17.9225 15.7954 17.1123 17.0133 15.8943 17.8288V20.7143H19.6109C21.7855 18.7122 23.04 15.764 23.04 12.2618Z" fill="#4285F4"/>
<path fill-rule="evenodd" clip-rule="evenodd" d="M11.9999 23.5002C15.1049 23.5002 17.7081 22.4705 19.6108 20.7141L15.8943 17.8286C14.8645 18.5187 13.5472 18.9264 11.9999 18.9264C9.00471 18.9264 6.46948 16.9034 5.56516 14.1852H1.72311V17.1648C3.61539 20.9232 7.50448 23.5002 11.9999 23.5002Z" fill="#34A853"/>
<path fill-rule="evenodd" clip-rule="evenodd" d="M5.56523 14.1855C5.33523 13.4955 5.20455 12.7584 5.20455 12.0005C5.20455 11.2425 5.33523 10.5055 5.56523 9.81545V6.83591H1.72318C0.944318 8.38841 0.5 10.1448 0.5 12.0005C0.5 13.8561 0.944318 15.6125 1.72318 17.165L5.56523 14.1855Z" fill="#FBBC05"/>
<path fill-rule="evenodd" clip-rule="evenodd" d="M11.9999 5.07426C13.6883 5.07426 15.2043 5.65449 16.3961 6.79403L19.6945 3.49562C17.7029 1.63994 15.0997 0.500397 11.9999 0.500397C7.50448 0.500397 3.61539 3.07744 1.72311 6.83585L5.56516 9.8154C6.46948 7.09721 9.00471 5.07426 11.9999 5.07426Z" fill="#EA4335"/>
</svg>
