<svg width="194" height="42" viewBox="0 0 194 42" fill="none" xmlns="http://www.w3.org/2000/svg">
<path d="M70.331 12.5406H75.3173V20.0963H70.331V32.2223C70.331 32.625 70.4006 32.9649 70.539 33.2418C70.6775 33.5062 70.8919 33.7078 71.1815 33.8463C71.4711 33.9722 71.8426 34.0358 72.2958 34.0358C72.6106 34.0357 72.976 33.998 73.3915 33.9225C73.8195 33.8469 74.1344 33.7834 74.3358 33.733L75.8466 41.0611C75.3807 41.1996 74.7134 41.3704 73.8446 41.5719C72.9885 41.7733 71.9685 41.9054 70.7851 41.9684C68.3928 42.0943 66.384 41.8489 64.7597 41.232C63.1354 40.6025 61.9141 39.6135 61.0956 38.2662C60.3283 37.0032 59.931 35.4413 59.9052 33.5807V20.0963H56.203V12.5406H59.9052V5.59044H70.331V12.5406ZM125.607 28.86C125.62 30.2954 125.985 31.4224 126.703 32.2408C127.433 33.0592 128.453 33.4684 129.763 33.4684C130.631 33.4683 131.38 33.2856 132.01 32.9205C132.652 32.5428 133.143 32.0145 133.483 31.3346C133.836 30.642 134.006 29.8169 133.993 28.86V12.5406H144.42V41.5524H134.522V36.0377H134.22C133.59 37.8884 132.489 39.3364 130.915 40.3815C129.341 41.414 127.47 41.9303 125.305 41.9303C123.277 41.9302 121.502 41.4646 119.978 40.5328C118.467 39.601 117.29 38.3162 116.446 36.6793C115.615 35.0425 115.194 33.1665 115.182 31.0514V12.5406H125.607V28.86ZM40.5292 41.5524H29.1962L26.0175 31.0231L34.7372 24.0055L40.5292 41.5524ZM53.7685 41.5524H43.3417V2.87071H53.7685V41.5524ZM95.5077 12.1637C95.9609 12.1637 96.4079 12.2014 96.8485 12.277C97.3017 12.3399 97.7359 12.4343 98.1513 12.5602V21.4557C97.6351 21.2795 96.9993 21.1473 96.244 21.0592C95.4886 20.9711 94.8402 20.9274 94.2987 20.9274C93.2788 20.9274 92.3594 21.1607 91.5409 21.6266C90.7353 22.0798 90.0995 22.7216 89.6337 23.5524C89.1679 24.3707 88.9345 25.3341 88.9345 26.442V41.5524H78.5087V12.5406H88.6327V18.0563H88.9345C89.4633 16.0165 90.3004 14.5241 91.4462 13.5797C92.6046 12.6353 93.9589 12.1637 95.5077 12.1637ZM110.933 41.5524H100.507V12.5406H110.933V41.5524ZM184.167 12.1637C186.95 12.1637 189.205 13.0573 190.93 14.8453C192.667 16.6333 193.536 19.0134 193.536 21.985V41.5524H183.109V24.6295C183.109 23.3578 182.789 22.3629 182.146 21.6451C181.504 20.9148 180.641 20.5494 179.559 20.5494C178.488 20.5495 177.638 20.9148 177.009 21.6451C176.392 22.3628 176.083 23.3578 176.083 24.6295V41.5524H166.11V24.6295C166.11 23.3578 165.79 22.3629 165.147 21.6451C164.505 20.9148 163.642 20.5494 162.559 20.5494C161.842 20.5495 161.225 20.7133 160.709 21.0406C160.193 21.368 159.79 21.8406 159.5 22.4576C159.223 23.062 159.085 23.786 159.085 24.6295V41.5524H148.658V12.5406H158.556V18.0563H158.857C159.462 16.2431 160.494 14.8073 161.955 13.7496C163.416 12.692 165.153 12.1638 167.168 12.1637C169.208 12.1637 170.965 12.7048 172.438 13.7877C173.911 14.858 174.799 16.2809 175.101 18.0563H175.403C175.894 16.2808 176.94 14.858 178.539 13.7877C180.138 12.7049 182.014 12.1638 184.167 12.1637ZM31.953 15.5729L23.4247 22.4352L20.7343 13.5231H20.4325L15.9179 28.4762L0.989166 40.4899L13.4062 2.87071H27.7607L31.953 15.5729ZM105.72 -0.00038147C107.142 -0.00038147 108.351 0.465515 109.346 1.39708C110.353 2.32888 110.857 3.44983 110.857 4.75938C110.857 6.06891 110.353 7.18991 109.346 8.12169C108.351 9.05322 107.142 9.51915 105.72 9.51915C104.31 9.51915 103.101 9.05322 102.094 8.12169C101.086 7.18991 100.582 6.06891 100.582 4.75938C100.582 3.44983 101.086 2.32888 102.094 1.39708C103.101 0.465507 104.31 -0.000378242 105.72 -0.00038147Z" fill="white"/>
<mask id="path-2-inside-1_63_4060" fill="white">
<path d="M39.4424 21.9196L38.2266 20.4089L11.7608 41.7048H0.463928L33.7862 14.8903L33.7657 14.864L32.2715 13.0075L42.3008 12.737L39.4424 21.9196Z"/>
</mask>
<path d="M39.4424 21.9196L38.2266 20.4089L11.7608 41.7048H0.463928L33.7862 14.8903L33.7657 14.864L32.2715 13.0075L42.3008 12.737L39.4424 21.9196Z" fill="#295BEB"/>
<path d="M39.4424 21.9196L38.9516 22.3146L39.6927 23.2354L40.044 22.1069L39.4424 21.9196ZM38.2266 20.4089L38.7174 20.0139L38.3225 19.5231L37.8317 19.918L38.2266 20.4089ZM11.7608 41.7048V42.3348H11.9828L12.1558 42.1956L11.7608 41.7048ZM0.463928 41.7048L0.0689574 41.214L-1.32391 42.3348H0.463928V41.7048ZM33.7862 14.8903L34.1812 15.3812L34.6639 14.9927L34.2835 14.5035L33.7862 14.8903ZM33.7657 14.864L34.2631 14.4771L34.2565 14.469L33.7657 14.864ZM32.2715 13.0075L32.2546 12.3777L30.9835 12.412L31.7807 13.4025L32.2715 13.0075ZM42.3008 12.737L42.9024 12.9243L43.1641 12.0835L42.2839 12.1072L42.3008 12.737ZM39.4424 21.9196L39.9333 21.5246L38.7174 20.0139L38.2266 20.4089L37.7358 20.8039L38.9516 22.3146L39.4424 21.9196ZM38.2266 20.4089L37.8317 19.918L11.3658 41.2139L11.7608 41.7048L12.1558 42.1956L38.6216 20.8997L38.2266 20.4089ZM11.7608 41.7048V41.0748H0.463928V41.7048V42.3348H11.7608V41.7048ZM0.463928 41.7048L0.858899 42.1956L34.1812 15.3812L33.7862 14.8903L33.3912 14.3995L0.0689574 41.214L0.463928 41.7048ZM33.7862 14.8903L34.2835 14.5035L34.263 14.4772L33.7657 14.864L33.2684 15.2508L33.2889 15.2771L33.7862 14.8903ZM33.7657 14.864L34.2565 14.469L32.7623 12.6125L32.2715 13.0075L31.7807 13.4025L33.2749 15.259L33.7657 14.864ZM32.2715 13.0075L32.2885 13.6373L42.3178 13.3668L42.3008 12.737L42.2839 12.1072L32.2546 12.3777L32.2715 13.0075ZM42.3008 12.737L41.6993 12.5498L38.8409 21.7324L39.4424 21.9196L40.044 22.1069L42.9024 12.9243L42.3008 12.737Z" fill="#191A19" mask="url(#path-2-inside-1_63_4060)"/>
</svg>
