<svg width="384" height="11" viewBox="0 0 384 11" fill="none" xmlns="http://www.w3.org/2000/svg">
<g opacity="0.5">
<line y1="-0.5" x2="168" y2="-0.5" transform="matrix(-1 0 0 1 168 5.0004)" stroke="url(#paint0_linear_63_4070)"/>
<path d="M188.732 10.2524C188.079 10.2524 187.505 10.1404 187.01 9.9164C186.515 9.6924 186.095 9.3984 185.75 9.0344C185.414 8.66106 185.157 8.24573 184.98 7.7884C184.812 7.33106 184.728 6.8644 184.728 6.3884V6.1364C184.728 5.6604 184.817 5.19373 184.994 4.7364C185.171 4.26973 185.433 3.8544 185.778 3.4904C186.123 3.11706 186.543 2.82306 187.038 2.6084C187.533 2.3844 188.097 2.2724 188.732 2.2724C189.367 2.2724 189.931 2.3844 190.426 2.6084C190.921 2.82306 191.341 3.11706 191.686 3.4904C192.031 3.8544 192.293 4.26973 192.47 4.7364C192.647 5.19373 192.736 5.6604 192.736 6.1364V6.3884C192.736 6.8644 192.647 7.33106 192.47 7.7884C192.302 8.24573 192.045 8.66106 191.7 9.0344C191.364 9.3984 190.949 9.6924 190.454 9.9164C189.959 10.1404 189.385 10.2524 188.732 10.2524ZM188.732 9.0484C189.292 9.0484 189.768 8.92706 190.16 8.6844C190.561 8.4324 190.865 8.0964 191.07 7.6764C191.285 7.2564 191.392 6.78506 191.392 6.2624C191.392 5.7304 191.285 5.2544 191.07 4.8344C190.855 4.4144 190.547 4.08306 190.146 3.8404C189.754 3.59773 189.283 3.4764 188.732 3.4764C188.191 3.4764 187.719 3.59773 187.318 3.8404C186.917 4.08306 186.609 4.4144 186.394 4.8344C186.179 5.2544 186.072 5.7304 186.072 6.2624C186.072 6.78506 186.175 7.2564 186.38 7.6764C186.595 8.0964 186.898 8.4324 187.29 8.6844C187.691 8.92706 188.172 9.0484 188.732 9.0484ZM194.749 10.0004V2.5244H195.813V5.6044H195.757C195.757 4.5124 195.995 3.7144 196.471 3.2104C196.956 2.69706 197.68 2.4404 198.641 2.4404H198.893V3.6444H198.417C197.67 3.6444 197.096 3.84506 196.695 4.2464C196.294 4.6384 196.093 5.20773 196.093 5.9544V10.0004H194.749Z" fill="#E0E0E0"/>
<line x1="216" y1="4.5004" x2="384" y2="4.5004" stroke="url(#paint1_linear_63_4070)"/>
</g>
<defs>
<linearGradient id="paint0_linear_63_4070" x1="0" y1="0.5" x2="168" y2="0.5" gradientUnits="userSpaceOnUse">
<stop stop-opacity="0.5"/>
<stop offset="1" stop-color="#F1F1F1" stop-opacity="0.5"/>
</linearGradient>
<linearGradient id="paint1_linear_63_4070" x1="216" y1="5.5004" x2="384" y2="5.5004" gradientUnits="userSpaceOnUse">
<stop stop-opacity="0.5"/>
<stop offset="1" stop-color="#F1F1F1" stop-opacity="0.5"/>
</linearGradient>
</defs>
</svg>
